<svg width="214" height="27" viewBox="0 0 214 27" fill="none" xmlns="http://www.w3.org/2000/svg">
<path d="M0.74 26V3.6H11.332C13.8067 3.6 15.9827 4.05867 17.86 4.976C19.7373 5.89333 21.1987 7.184 22.244 8.848C23.3107 10.512 23.844 12.496 23.844 14.8C23.844 17.0827 23.3107 19.0667 22.244 20.752C21.1987 22.416 19.7373 23.7067 17.86 24.624C15.9827 25.5413 13.8067 26 11.332 26H0.74ZM7.076 20.944H11.076C12.356 20.944 13.4653 20.7093 14.404 20.24C15.364 19.7493 16.1107 19.0453 16.644 18.128C17.1773 17.1893 17.444 16.08 17.444 14.8C17.444 13.4987 17.1773 12.3893 16.644 11.472C16.1107 10.5547 15.364 9.86133 14.404 9.392C13.4653 8.90133 12.356 8.656 11.076 8.656H7.076V20.944ZM37.4815 26V22.768L37.0655 21.968V16.016C37.0655 15.056 36.7668 14.32 36.1695 13.808C35.5935 13.2747 34.6655 13.008 33.3855 13.008C32.5535 13.008 31.7108 13.1467 30.8575 13.424C30.0042 13.68 29.2788 14.0427 28.6815 14.512L26.6335 10.384C27.6148 9.744 28.7882 9.25333 30.1535 8.912C31.5402 8.54933 32.9162 8.368 34.2815 8.368C37.0975 8.368 39.2735 9.01867 40.8095 10.32C42.3668 11.6 43.1455 13.616 43.1455 16.368V26H37.4815ZM32.3615 26.288C30.9748 26.288 29.8015 26.0533 28.8415 25.584C27.8815 25.1147 27.1455 24.4747 26.6335 23.664C26.1428 22.8533 25.8975 21.9467 25.8975 20.944C25.8975 19.8773 26.1642 18.96 26.6975 18.192C27.2522 17.4027 28.0948 16.8053 29.2255 16.4C30.3562 15.9733 31.8175 15.76 33.6095 15.76H37.7055V18.928H34.4415C33.4602 18.928 32.7668 19.088 32.3615 19.408C31.9775 19.728 31.7855 20.1547 31.7855 20.688C31.7855 21.2213 31.9882 21.648 32.3935 21.968C32.7988 22.288 33.3535 22.448 34.0575 22.448C34.7188 22.448 35.3162 22.288 35.8495 21.968C36.4042 21.6267 36.8095 21.1147 37.0655 20.432L37.8975 22.672C37.5775 23.8667 36.9482 24.7733 36.0095 25.392C35.0922 25.9893 33.8762 26.288 32.3615 26.288ZM58.2793 8.368C59.6233 8.368 60.8393 8.64533 61.9272 9.2C63.0153 9.73333 63.8686 10.5653 64.4873 11.696C65.1273 12.8267 65.4473 14.288 65.4473 16.08V26H59.3673V17.072C59.3673 15.8347 59.1113 14.9387 58.5993 14.384C58.1086 13.808 57.4153 13.52 56.5193 13.52C55.8793 13.52 55.2926 13.6693 54.7593 13.968C54.2259 14.2453 53.8099 14.6827 53.5113 15.28C53.2126 15.8773 53.0633 16.656 53.0633 17.616V26H46.9833V8.656H52.7753V13.584L51.6553 12.144C52.3166 10.8853 53.2233 9.94667 54.3753 9.328C55.5273 8.688 56.8286 8.368 58.2793 8.368ZM78.3473 26.288C76.4273 26.288 74.7099 25.904 73.1953 25.136C71.7019 24.368 70.5286 23.312 69.6753 21.968C68.8219 20.6027 68.3953 19.0453 68.3953 17.296C68.3953 15.5467 68.8219 14 69.6753 12.656C70.5286 11.312 71.7019 10.2667 73.1953 9.52C74.7099 8.752 76.4273 8.368 78.3473 8.368C80.3099 8.368 82.0059 8.784 83.4353 9.616C84.8646 10.448 85.8779 11.6213 86.4753 13.136L81.7713 15.536C81.3659 14.7253 80.8646 14.1387 80.2673 13.776C79.6699 13.392 79.0193 13.2 78.3153 13.2C77.6113 13.2 76.9713 13.36 76.3953 13.68C75.8193 14 75.3606 14.4693 75.0193 15.088C74.6993 15.6853 74.5393 16.4213 74.5393 17.296C74.5393 18.192 74.6993 18.9493 75.0193 19.568C75.3606 20.1867 75.8193 20.656 76.3953 20.976C76.9713 21.296 77.6113 21.456 78.3153 21.456C79.0193 21.456 79.6699 21.2747 80.2673 20.912C80.8646 20.528 81.3659 19.9307 81.7713 19.12L86.4753 21.52C85.8779 23.0347 84.8646 24.208 83.4353 25.04C82.0059 25.872 80.3099 26.288 78.3473 26.288ZM97.665 26.288C95.617 26.288 93.825 25.904 92.289 25.136C90.7743 24.3467 89.5903 23.28 88.737 21.936C87.905 20.5707 87.489 19.024 87.489 17.296C87.489 15.568 87.8943 14.032 88.705 12.688C89.537 11.3227 90.6783 10.2667 92.129 9.52C93.5797 8.752 95.2117 8.368 97.025 8.368C98.7317 8.368 100.289 8.72 101.697 9.424C103.105 10.1067 104.225 11.12 105.057 12.464C105.889 13.808 106.305 15.44 106.305 17.36C106.305 17.5733 106.294 17.8187 106.273 18.096C106.252 18.3733 106.23 18.6293 106.209 18.864H92.481V15.664H102.977L100.673 16.56C100.694 15.7707 100.545 15.088 100.225 14.512C99.9263 13.936 99.4997 13.488 98.945 13.168C98.4117 12.848 97.7823 12.688 97.057 12.688C96.3317 12.688 95.6917 12.848 95.137 13.168C94.6037 13.488 94.1877 13.9467 93.889 14.544C93.5903 15.12 93.441 15.8027 93.441 16.592V17.52C93.441 18.3733 93.6117 19.1093 93.953 19.728C94.3157 20.3467 94.8277 20.8267 95.489 21.168C96.1503 21.488 96.9397 21.648 97.857 21.648C98.7103 21.648 99.4357 21.5307 100.033 21.296C100.652 21.04 101.26 20.656 101.857 20.144L105.057 23.472C104.225 24.3893 103.201 25.0933 101.985 25.584C100.769 26.0533 99.329 26.288 97.665 26.288ZM106.708 26L116.596 3.6H122.836L132.756 26H126.164L118.42 6.704H120.916L113.172 26H106.708ZM112.116 21.648L113.748 16.976H124.692L126.324 21.648H112.116ZM134.812 26V8.848C134.812 6.75733 135.431 5.09333 136.668 3.856C137.927 2.59733 139.719 1.968 142.044 1.968C142.791 1.968 143.527 2.04267 144.252 2.192C144.978 2.34133 145.586 2.56533 146.076 2.864L144.572 7.152C144.316 7.00267 144.028 6.88533 143.708 6.8C143.388 6.69333 143.068 6.64 142.748 6.64C142.108 6.64 141.607 6.832 141.244 7.216C140.903 7.57867 140.732 8.144 140.732 8.912V10.16L140.892 12.688V26H134.812ZM132.284 13.84V9.296H144.86V13.84H132.284ZM147.644 26V8.656H153.724V26H147.644ZM150.684 6.736C149.575 6.736 148.679 6.42666 147.996 5.808C147.314 5.18933 146.972 4.42133 146.972 3.504C146.972 2.58667 147.314 1.81867 147.996 1.2C148.679 0.581333 149.575 0.271999 150.684 0.271999C151.794 0.271999 152.69 0.570666 153.372 1.168C154.055 1.744 154.396 2.49067 154.396 3.408C154.396 4.368 154.055 5.168 153.372 5.808C152.711 6.42666 151.815 6.736 150.684 6.736ZM163.975 26.288C162.503 26.288 161.063 26.1173 159.655 25.776C158.268 25.4347 157.148 25.008 156.295 24.496L158.119 20.336C158.929 20.8267 159.879 21.2213 160.967 21.52C162.055 21.7973 163.121 21.936 164.167 21.936C165.191 21.936 165.895 21.8293 166.279 21.616C166.684 21.4027 166.887 21.1147 166.887 20.752C166.887 20.4107 166.695 20.1653 166.311 20.016C165.948 19.8453 165.457 19.7173 164.839 19.632C164.241 19.5467 163.58 19.4507 162.855 19.344C162.129 19.2373 161.393 19.0987 160.647 18.928C159.921 18.736 159.249 18.4587 158.631 18.096C158.033 17.712 157.553 17.2 157.191 16.56C156.828 15.92 156.647 15.1093 156.647 14.128C156.647 13.0187 156.967 12.0373 157.607 11.184C158.268 10.3093 159.228 9.62667 160.487 9.136C161.745 8.624 163.281 8.368 165.095 8.368C166.311 8.368 167.537 8.496 168.775 8.752C170.033 8.98667 171.089 9.34933 171.943 9.84L170.119 13.968C169.265 13.4773 168.412 13.1467 167.559 12.976C166.705 12.784 165.895 12.688 165.127 12.688C164.103 12.688 163.377 12.8053 162.951 13.04C162.545 13.2747 162.343 13.5627 162.343 13.904C162.343 14.2453 162.524 14.512 162.887 14.704C163.249 14.8747 163.729 15.0133 164.327 15.12C164.945 15.2053 165.617 15.3013 166.343 15.408C167.068 15.4933 167.793 15.632 168.519 15.824C169.265 16.016 169.937 16.304 170.535 16.688C171.153 17.0507 171.644 17.552 172.007 18.192C172.369 18.8107 172.551 19.6107 172.551 20.592C172.551 21.6587 172.22 22.6187 171.559 23.472C170.919 24.3253 169.959 25.008 168.679 25.52C167.42 26.032 165.852 26.288 163.975 26.288ZM186.467 8.368C187.811 8.368 189.027 8.64533 190.115 9.2C191.203 9.73333 192.056 10.5653 192.675 11.696C193.315 12.8267 193.635 14.288 193.635 16.08V26H187.555V17.072C187.555 15.8347 187.299 14.9387 186.787 14.384C186.296 13.808 185.603 13.52 184.707 13.52C184.067 13.52 183.48 13.6693 182.947 13.968C182.413 14.2453 181.997 14.6827 181.699 15.28C181.4 15.8773 181.251 16.656 181.251 17.616V26H175.171V2.256H181.251V13.584L179.843 12.144C180.504 10.8853 181.411 9.94667 182.563 9.328C183.715 8.688 185.016 8.368 186.467 8.368ZM208.044 26V22.768L207.628 21.968V16.016C207.628 15.056 207.329 14.32 206.732 13.808C206.156 13.2747 205.228 13.008 203.948 13.008C203.116 13.008 202.273 13.1467 201.42 13.424C200.567 13.68 199.841 14.0427 199.244 14.512L197.196 10.384C198.177 9.744 199.351 9.25333 200.716 8.912C202.103 8.54933 203.479 8.368 204.844 8.368C207.66 8.368 209.836 9.01867 211.372 10.32C212.929 11.6 213.708 13.616 213.708 16.368V26H208.044ZM202.924 26.288C201.537 26.288 200.364 26.0533 199.404 25.584C198.444 25.1147 197.708 24.4747 197.196 23.664C196.705 22.8533 196.46 21.9467 196.46 20.944C196.46 19.8773 196.727 18.96 197.26 18.192C197.815 17.4027 198.657 16.8053 199.788 16.4C200.919 15.9733 202.38 15.76 204.172 15.76H208.268V18.928H205.004C204.023 18.928 203.329 19.088 202.924 19.408C202.54 19.728 202.348 20.1547 202.348 20.688C202.348 21.2213 202.551 21.648 202.956 21.968C203.361 22.288 203.916 22.448 204.62 22.448C205.281 22.448 205.879 22.288 206.412 21.968C206.967 21.6267 207.372 21.1147 207.628 20.432L208.46 22.672C208.14 23.8667 207.511 24.7733 206.572 25.392C205.655 25.9893 204.439 26.288 202.924 26.288Z" fill="white"/>
</svg>
