<svg width="40" height="40" viewBox="0 0 40 40" fill="none" xmlns="http://www.w3.org/2000/svg">
<path fill-rule="evenodd" clip-rule="evenodd" d="M40 20.0004C40 31.0448 31.0448 40 19.9996 40C8.95524 40 0 31.0448 0 20.0004C0 8.95525 8.95524 0 19.9996 0C31.0448 0 40 8.95525 40 20.0004Z" fill="#FB3F1C"/>
<path fill-rule="evenodd" clip-rule="evenodd" d="M23.107 32.2677H27.4827V7.28058H21.1415C14.7618 7.28058 11.4138 10.5473 11.4138 15.372C11.4109 19.1762 13.2749 21.5116 16.5257 23.8166L10.8249 32.2677H15.5524L21.8965 22.7997L19.6873 21.3325C17.0233 19.5366 15.7185 18.1412 15.7185 15.1145C15.7185 12.4534 17.5926 10.6583 21.1574 10.6583H23.107V32.2677Z" fill="white"/>
</svg>
